<?xml version="1.0" ?><svg viewBox="0 0 48 48" xmlns="http://www.w3.org/2000/svg" xmlns:xlink="http://www.w3.org/1999/xlink"><defs><style>.cls-1{fill:url(#linear-gradient);}.cls-2{fill:url(#linear-gradient-2);}.cls-3{fill:#a5a4a4;}.cls-4{fill:url(#linear-gradient-3);}.cls-5{fill:url(#linear-gradient-4);}.cls-6{fill:#585858;}.cls-7{fill:url(#linear-gradient-5);}</style><linearGradient gradientUnits="userSpaceOnUse" id="linear-gradient" x1="24" x2="24" y1="37.15" y2="42.23"><stop offset="0" stop-color="#e9e9e9"/><stop offset="1" stop-color="#b6b6b6"/></linearGradient><linearGradient id="linear-gradient-2" x1="24" x2="24" xlink:href="#linear-gradient" y1="40.56" y2="36.05"/><linearGradient id="linear-gradient-3" x1="13.59" x2="34.41" xlink:href="#linear-gradient" y1="1.26" y2="37.86"/><linearGradient id="linear-gradient-4" x1="24.69" x2="26.39" xlink:href="#linear-gradient" y1="9.64" y2="-9.86"/><linearGradient gradientUnits="userSpaceOnUse" id="linear-gradient-5" x1="14.67" x2="31.58" y1="3.56" y2="28.33"><stop offset="0" stop-color="#66bcef"/><stop offset="1" stop-color="#4096c9"/></linearGradient></defs><title/><g id="icons"><g data-name="Layer 3" id="Layer_3"><path class="cls-1" d="M24,44.06c-6,0-8-1-8-2.07v-.93H32V42C32,43.06,30,44.06,24,44.06Z"/><path class="cls-2" d="M29,38.06v-4H19v4c-.39,1.29-3,3-3,3s1.48,1,8,1,8-1,8-1S29.2,39.24,29,38.06Z"/><rect class="cls-3" height="3" width="10" x="19" y="34.06"/><rect class="cls-4" height="31" rx="5" ry="5" width="38" x="5" y="4.06"/><path class="cls-5" d="M9.58,6.06H37.81A3.19,3.19,0,0,1,41,9.25V26.48a2.58,2.58,0,0,1-2.58,2.58H9.58A2.58,2.58,0,0,1,7,26.48V8.64A2.58,2.58,0,0,1,9.58,6.06Z"/><path class="cls-6" d="M10,6.06H37.47A2.53,2.53,0,0,1,40,8.59V26.11a2,2,0,0,1-2,2H10a2,2,0,0,1-2-2V8A2,2,0,0,1,10,6.06Z"/><path class="cls-7" d="M11,8.06H36.54A1.46,1.46,0,0,1,38,9.52V25.08a1,1,0,0,1-1,1H11a1,1,0,0,1-1-1V9A1,1,0,0,1,11,8.06Z"/></g></g></svg>