<?xml version="1.0" ?><svg viewBox="0 0 48 48" xmlns="http://www.w3.org/2000/svg" xmlns:xlink="http://www.w3.org/1999/xlink"><defs><style>.cls-1{fill:url(#linear-gradient);}.cls-2{fill:url(#linear-gradient-2);}.cls-3{fill:url(#linear-gradient-3);}.cls-4{fill:#585858;}.cls-5{fill:#e01720;}.cls-6{fill:url(#linear-gradient-4);}</style><linearGradient gradientUnits="userSpaceOnUse" id="linear-gradient" x1="24" x2="24" y1="4.17" y2="48.19"><stop offset="0" stop-color="#66bcef"/><stop offset="1" stop-color="#4096c9"/></linearGradient><linearGradient gradientUnits="userSpaceOnUse" id="linear-gradient-2" x1="24" x2="24" y1="6.18" y2="28.25"><stop offset="0" stop-color="#5cb6ec"/><stop offset="1" stop-color="#aad6f1"/></linearGradient><linearGradient gradientUnits="userSpaceOnUse" id="linear-gradient-3" x1="24" x2="24" y1="35.81" y2="6.89"><stop offset="0.32" stop-color="#e9e9e9"/><stop offset="0.5" stop-color="#e5e5e5"/><stop offset="0.65" stop-color="#dadada"/><stop offset="0.8" stop-color="#c8c8c8"/><stop offset="0.92" stop-color="#b4b4b4"/></linearGradient><linearGradient gradientUnits="userSpaceOnUse" id="linear-gradient-4" x1="23" x2="25" y1="24" y2="24"><stop offset="0" stop-color="#ec1c24"/><stop offset="1" stop-color="#a8000e"/></linearGradient></defs><title/><g id="icons"><g data-name="Layer 3" id="Layer_3"><circle class="cls-1" cx="24" cy="24" r="20"/><circle class="cls-2" cx="24" cy="24" r="15"/><circle class="cls-3" cx="24" cy="24" r="13.13"/><rect class="cls-4" height="7" width="1" x="23.5" y="16"/><rect class="cls-4" height="8.1" transform="translate(67.68 28.74) rotate(135)" width="1" x="27.39" y="24.34"/><rect class="cls-4" height="2" width="1" x="23.5" y="12"/><rect class="cls-4" height="2" width="1" x="23.5" y="34"/><rect class="cls-4" height="2" transform="translate(59 -11) rotate(90)" width="1" x="34.5" y="23"/><rect class="cls-4" height="2" transform="translate(37 11) rotate(90)" width="1" x="12.5" y="23"/><circle class="cls-4" cx="24" cy="24" r="2"/><polygon class="cls-5" points="24.36 24.55 23.81 23.72 17 29 24.36 24.55"/><circle class="cls-6" cx="24" cy="24" r="1"/></g></g></svg>